<?xml version="1.0" encoding="UTF-8"?>
<svg width="500" height="500" viewBox="0 0 500 500" fill="none" xmlns="http://www.w3.org/2000/svg">
  <defs>
    <linearGradient id="paint0_linear" x1="100" y1="100" x2="400" y2="400" gradientUnits="userSpaceOnUse">
      <stop offset="0" stop-color="#007BFF"/>
      <stop offset="1" stop-color="#5AC8FA"/>
    </linearGradient>
    <filter id="shadow" x="0" y="0" width="500" height="500" filterUnits="userSpaceOnUse" color-interpolation-filters="sRGB">
      <feFlood flood-opacity="0" result="BackgroundImageFix"/>
      <feColorMatrix in="SourceAlpha" type="matrix" values="0 0 0 0 0 0 0 0 0 0 0 0 0 0 0 0 0 0 127 0"/>
      <feOffset dy="4"/>
      <feGaussianBlur stdDeviation="8"/>
      <feColorMatrix type="matrix" values="0 0 0 0 0 0 0 0 0 0 0 0 0 0 0 0 0 0 0.25 0"/>
      <feBlend mode="normal" in2="BackgroundImageFix" result="effect1_dropShadow"/>
      <feBlend mode="normal" in="SourceGraphic" in2="effect1_dropShadow" result="shape"/>
    </filter>
  </defs>
  
  <!-- Background -->
  <circle cx="250" cy="250" r="200" fill="#333333" filter="url(#shadow)"/>
  
  <!-- Person head outline -->
  <circle cx="250" cy="180" r="70" fill="#222222" stroke="white" stroke-width="8"/>
  
  <!-- Profile silhouette -->
  <path d="M180 320C180 270 210 230 250 230C290 230 320 270 320 320" stroke="white" stroke-width="10" stroke-linecap="round"/>
  
  <!-- Shoulders -->
  <path d="M180 320L180 380M320 320L320 380" stroke="white" stroke-width="8" stroke-linecap="round"/>
  
  <!-- Connection lines -->
  <g stroke="url(#paint0_linear)" stroke-width="4" stroke-linecap="round">
    <line x1="220" y1="200" x2="280" y2="200"/>
    <line x1="220" y1="160" x2="240" y2="160"/>
    <line x1="260" y1="160" x2="280" y2="160"/>
    <circle cx="250" cy="250" r="12" stroke-width="6" fill="none"/>
  </g>
  
  <!-- Abstract data points -->
  <circle cx="210" cy="300" r="6" fill="#5AC8FA"/>
  <circle cx="230" cy="320" r="6" fill="#007BFF"/>
  <circle cx="270" cy="320" r="6" fill="#5AC8FA"/>
  <circle cx="290" cy="300" r="6" fill="#007BFF"/>
  
  <!-- Identity connection lines -->
  <g stroke="white" stroke-width="2" opacity="0.5">
    <line x1="210" y1="300" x2="250" y2="250"/>
    <line x1="230" y1="320" x2="250" y2="250"/>
    <line x1="270" y1="320" x2="250" y2="250"/>
    <line x1="290" y1="300" x2="250" y2="250"/>
  </g>
</svg>