<?xml version="1.0" encoding="UTF-8"?>
<svg width="500" height="500" viewBox="0 0 500 500" fill="none" xmlns="http://www.w3.org/2000/svg">
  <defs>
    <linearGradient id="paint0_linear" x1="100" y1="100" x2="400" y2="400" gradientUnits="userSpaceOnUse">
      <stop offset="0" stop-color="#007BFF"/>
      <stop offset="1" stop-color="#5AC8FA"/>
    </linearGradient>
    <filter id="shadow" x="0" y="0" width="500" height="500" filterUnits="userSpaceOnUse" color-interpolation-filters="sRGB">
      <feFlood flood-opacity="0" result="BackgroundImageFix"/>
      <feColorMatrix in="SourceAlpha" type="matrix" values="0 0 0 0 0 0 0 0 0 0 0 0 0 0 0 0 0 0 127 0"/>
      <feOffset dy="4"/>
      <feGaussianBlur stdDeviation="8"/>
      <feColorMatrix type="matrix" values="0 0 0 0 0 0 0 0 0 0 0 0 0 0 0 0 0 0 0.25 0"/>
      <feBlend mode="normal" in2="BackgroundImageFix" result="effect1_dropShadow"/>
      <feBlend mode="normal" in="SourceGraphic" in2="effect1_dropShadow" result="shape"/>
    </filter>
  </defs>
  
  <!-- Background -->
  <circle cx="250" cy="250" r="200" fill="#333333" filter="url(#shadow)"/>
  
  <!-- Envelope base -->
  <rect x="150" y="170" width="200" height="160" rx="10" fill="#222222" stroke="white" stroke-width="6"/>
  
  <!-- Envelope flap -->
  <path d="M150 180L250 250L350 180" stroke="white" stroke-width="6" fill="none"/>
  
  <!-- Center lines -->
  <line x1="150" y1="330" x2="220" y2="260" stroke="white" stroke-width="3"/>
  <line x1="350" y1="330" x2="280" y2="260" stroke="white" stroke-width="3"/>
  
  <!-- Data elements -->
  <circle cx="250" cy="250" r="30" fill="none" stroke="url(#paint0_linear)" stroke-width="4"/>
  <path d="M225 250H275" stroke="url(#paint0_linear)" stroke-width="4" stroke-linecap="round"/>
  <path d="M225 235H275" stroke="url(#paint0_linear)" stroke-width="4" stroke-linecap="round"/>
  <path d="M225 265H275" stroke="url(#paint0_linear)" stroke-width="4" stroke-linecap="round"/>
  
  <!-- Connection lines -->
  <path d="M190 210L220 240M310 210L280 240M190 290L220 260M310 290L280 260" stroke="#5AC8FA" stroke-width="2" stroke-linecap="round" opacity="0.7"/>
  
  <!-- Data points -->
  <circle cx="190" cy="210" r="5" fill="#007BFF"/>
  <circle cx="310" cy="210" r="5" fill="#5AC8FA"/>
  <circle cx="190" cy="290" r="5" fill="#5AC8FA"/>
  <circle cx="310" cy="290" r="5" fill="#007BFF"/>
</svg>