<?xml version="1.0" encoding="UTF-8"?>
<svg width="500" height="500" viewBox="0 0 500 500" fill="none" xmlns="http://www.w3.org/2000/svg">
  <defs>
    <linearGradient id="paint0_linear" x1="100" y1="100" x2="400" y2="400" gradientUnits="userSpaceOnUse">
      <stop offset="0" stop-color="#007BFF"/>
      <stop offset="1" stop-color="#5AC8FA"/>
    </linearGradient>
    <filter id="shadow" x="0" y="0" width="500" height="500" filterUnits="userSpaceOnUse" color-interpolation-filters="sRGB">
      <feFlood flood-opacity="0" result="BackgroundImageFix"/>
      <feColorMatrix in="SourceAlpha" type="matrix" values="0 0 0 0 0 0 0 0 0 0 0 0 0 0 0 0 0 0 127 0"/>
      <feOffset dy="4"/>
      <feGaussianBlur stdDeviation="8"/>
      <feColorMatrix type="matrix" values="0 0 0 0 0 0 0 0 0 0 0 0 0 0 0 0 0 0 0.25 0"/>
      <feBlend mode="normal" in2="BackgroundImageFix" result="effect1_dropShadow"/>
      <feBlend mode="normal" in="SourceGraphic" in2="effect1_dropShadow" result="shape"/>
    </filter>
    <filter id="glow" x="0" y="0" width="500" height="500" filterUnits="userSpaceOnUse">
      <feFlood flood-opacity="0" result="BackgroundImageFix"/>
      <feBlend mode="normal" in="SourceGraphic" in2="BackgroundImageFix" result="shape"/>
      <feGaussianBlur stdDeviation="10" result="effect1_foregroundBlur"/>
    </filter>
  </defs>
  
  <!-- Background -->
  <circle cx="250" cy="250" r="200" fill="#333333" filter="url(#shadow)"/>
  
  <!-- Lightning bolt - main element like the original eclair -->
  <path d="M275 100L170 220H240L225 400L330 280H260L275 100Z" stroke="#FFFFFF" stroke-width="10" stroke-linejoin="round" stroke-linecap="round"/>
  
  <!-- Lightning inner fill -->
  <path d="M275 100L170 220H240L225 400L330 280H260L275 100Z" fill="url(#paint0_linear)" stroke-width="2" stroke="#5AC8FA" filter="url(#glow)"/>
  
  <!-- Lightning Effects -->
  <g opacity="0.6">
    <!-- Small lightning bolts around the main one -->
    <path d="M160 180L140 210H160L150 240" stroke="white" stroke-width="3" stroke-linecap="round" stroke-linejoin="round"/>
    <path d="M350 200L370 230H350L360 260" stroke="white" stroke-width="3" stroke-linecap="round" stroke-linejoin="round"/>
    <path d="M180 320L160 350H180L170 380" stroke="white" stroke-width="3" stroke-linecap="round" stroke-linejoin="round"/>
    <path d="M330 340L350 370H330L340 400" stroke="white" stroke-width="3" stroke-linecap="round" stroke-linejoin="round"/>
    
    <!-- Electric sparks -->
    <line x1="285" y1="130" x2="305" y2="150" stroke="#5AC8FA" stroke-width="2" stroke-linecap="round"/>
    <line x1="265" y1="140" x2="245" y2="160" stroke="#5AC8FA" stroke-width="2" stroke-linecap="round"/>
    <line x1="190" y1="225" x2="210" y2="245" stroke="#5AC8FA" stroke-width="2" stroke-linecap="round"/>
    <line x1="235" y1="350" x2="255" y2="370" stroke="#5AC8FA" stroke-width="2" stroke-linecap="round"/>
    <line x1="315" y1="250" x2="335" y2="270" stroke="#5AC8FA" stroke-width="2" stroke-linecap="round"/>
  </g>
  
  <!-- Speed lines for lightning fast concept -->
  <g stroke="#777777" stroke-width="2" opacity="0.3">
    <line x1="120" y1="150" x2="150" y2="150" stroke-linecap="round"/>
    <line x1="350" y1="150" x2="380" y2="150" stroke-linecap="round"/>
    <line x1="120" y1="200" x2="150" y2="200" stroke-linecap="round"/>
    <line x1="350" y1="200" x2="380" y2="200" stroke-linecap="round"/>
    <line x1="120" y1="250" x2="150" y2="250" stroke-linecap="round"/>
    <line x1="350" y1="250" x2="380" y2="250" stroke-linecap="round"/>
    <line x1="120" y1="300" x2="150" y2="300" stroke-linecap="round"/>
    <line x1="350" y1="300" x2="380" y2="300" stroke-linecap="round"/>
    <line x1="120" y1="350" x2="150" y2="350" stroke-linecap="round"/>
    <line x1="350" y1="350" x2="380" y2="350" stroke-linecap="round"/>
  </g>
  
  <!-- Central point highlight -->
  <circle cx="260" cy="250" r="10" fill="white" opacity="0.8"/>
</svg>