<?xml version="1.0" encoding="UTF-8"?>
<svg width="500" height="500" viewBox="0 0 500 500" fill="none" xmlns="http://www.w3.org/2000/svg">
  <defs>
    <linearGradient id="paint0_linear" x1="100" y1="100" x2="400" y2="400" gradientUnits="userSpaceOnUse">
      <stop offset="0" stop-color="#007BFF"/>
      <stop offset="1" stop-color="#5AC8FA"/>
    </linearGradient>
    <linearGradient id="paint1_linear" x1="150" y1="150" x2="350" y2="350" gradientUnits="userSpaceOnUse">
      <stop offset="0" stop-color="#5AC8FA"/>
      <stop offset="1" stop-color="#FFFFFF"/>
    </linearGradient>
    <filter id="shadow" x="0" y="0" width="500" height="500" filterUnits="userSpaceOnUse" color-interpolation-filters="sRGB">
      <feFlood flood-opacity="0" result="BackgroundImageFix"/>
      <feColorMatrix in="SourceAlpha" type="matrix" values="0 0 0 0 0 0 0 0 0 0 0 0 0 0 0 0 0 0 127 0"/>
      <feOffset dy="4"/>
      <feGaussianBlur stdDeviation="8"/>
      <feColorMatrix type="matrix" values="0 0 0 0 0 0 0 0 0 0 0 0 0 0 0 0 0 0 0.25 0"/>
      <feBlend mode="normal" in2="BackgroundImageFix" result="effect1_dropShadow"/>
      <feBlend mode="normal" in="SourceGraphic" in2="effect1_dropShadow" result="shape"/>
    </filter>
  </defs>
  
  <!-- Background -->
  <circle cx="250" cy="250" r="200" fill="#333333" filter="url(#shadow)"/>
  
  <!-- Bowl - resembling the original fruit bowl concept -->
  <ellipse cx="250" cy="300" rx="150" ry="60" fill="#222222" stroke="white" stroke-width="4"/>
  <path d="M150 270C150 230 200 190 250 190C300 190 350 230 350 270" stroke="white" stroke-width="4" fill="none"/>
  
  <!-- Data chart slices representing fruit salad -->
  <path d="M250 250L320 200A100 100 0 0 1 350 250L250 250Z" fill="#007BFF" stroke="white" stroke-width="2"/>
  <path d="M250 250L350 250A100 100 0 0 1 320 300L250 250Z" fill="#5AC8FA" stroke="white" stroke-width="2"/>
  <path d="M250 250L320 300A100 100 0 0 1 250 330L250 250Z" fill="#777777" stroke="white" stroke-width="2"/>
  <path d="M250 250L250 330A100 100 0 0 1 180 300L250 250Z" fill="#AAAAAA" stroke="white" stroke-width="2"/>
  <path d="M250 250L180 300A100 100 0 0 1 150 250L250 250Z" fill="#007BFF" stroke="white" stroke-width="2"/>
  <path d="M250 250L150 250A100 100 0 0 1 180 200L250 250Z" fill="#5AC8FA" stroke="white" stroke-width="2"/>
  <path d="M250 250L180 200A100 100 0 0 1 250 170L250 250Z" fill="#FFFFFF" stroke="white" stroke-width="2" opacity="0.9"/>
  <path d="M250 250L250 170A100 100 0 0 1 320 200L250 250Z" fill="#AAAAAA" stroke="white" stroke-width="2"/>
  
  <!-- Data visualization elements -->
  <circle cx="250" cy="250" r="30" fill="#222222" stroke="url(#paint0_linear)" stroke-width="5"/>
  <circle cx="250" cy="250" r="10" fill="white"/>
  
  <!-- Visualization controls and indicators -->
  <g stroke="url(#paint1_linear)" stroke-width="3" stroke-linecap="round">
    <line x1="295" y1="215" x2="325" y2="195" opacity="0.7"/>
    <line x1="315" y1="260" x2="345" y2="260" opacity="0.7"/>
    <line x1="295" y1="295" x2="315" y2="315" opacity="0.7"/>
    <line x1="250" y1="305" x2="250" y2="325" opacity="0.7"/>
    <line x1="205" y1="295" x2="185" y2="315" opacity="0.7"/>
    <line x1="185" y1="260" x2="155" y2="260" opacity="0.7"/>
    <line x1="205" y1="215" x2="175" y2="195" opacity="0.7"/>
    <line x1="250" y1="190" x2="250" y2="170" opacity="0.7"/>
  </g>
  
  <!-- Small data points -->
  <circle cx="335" cy="190" r="6" fill="white"/>
  <circle cx="350" cy="260" r="6" fill="white"/>
  <circle cx="320" cy="320" r="6" fill="white"/>
  <circle cx="250" cy="330" r="6" fill="white"/>
  <circle cx="180" cy="320" r="6" fill="white"/>
  <circle cx="150" cy="260" r="6" fill="white"/>
  <circle cx="170" cy="190" r="6" fill="white"/>
  <circle cx="250" cy="165" r="6" fill="white"/>
  
  <!-- Data annotation lines -->
  <line x1="335" y1="190" x2="360" y2="170" stroke="white" stroke-width="1.5" stroke-dasharray="2 2"/>
  <line x1="350" y1="260" x2="375" y2="260" stroke="white" stroke-width="1.5" stroke-dasharray="2 2"/>
  <line x1="320" y1="320" x2="345" y2="340" stroke="white" stroke-width="1.5" stroke-dasharray="2 2"/>
  <line x1="250" y1="330" x2="250" y2="350" stroke="white" stroke-width="1.5" stroke-dasharray="2 2"/>
  <line x1="180" y1="320" x2="155" y2="340" stroke="white" stroke-width="1.5" stroke-dasharray="2 2"/>
  <line x1="150" y1="260" x2="125" y2="260" stroke="white" stroke-width="1.5" stroke-dasharray="2 2"/>
  <line x1="170" y1="190" x2="145" y2="170" stroke="white" stroke-width="1.5" stroke-dasharray="2 2"/>
  <line x1="250" y1="165" x2="250" y2="145" stroke="white" stroke-width="1.5" stroke-dasharray="2 2"/>
</svg>