<?xml version="1.0" encoding="UTF-8" standalone="no"?>
<svg
   xmlns:dc="http://purl.org/dc/elements/1.1/"
   xmlns:cc="http://creativecommons.org/ns#"
   xmlns:rdf="http://www.w3.org/1999/02/22-rdf-syntax-ns#"
   xmlns:svg="http://www.w3.org/2000/svg"
   xmlns="http://www.w3.org/2000/svg"
   xmlns:sodipodi="http://sodipodi.sourceforge.net/DTD/sodipodi-0.dtd"
   xmlns:inkscape="http://www.inkscape.org/namespaces/inkscape"
   version="1.1"
   id="Layer_1"
   x="0px"
   y="0px"
   viewBox="0 0 490.01034 321.98345"
   xml:space="preserve"
   sodipodi:docname="welcome-2.svg"
   width="490.01035"
   height="321.98346"
   inkscape:version="1.0.2 (e86c8708, 2021-01-15)"><metadata
   id="metadata138"><rdf:RDF><cc:Work
       rdf:about=""><dc:format>image/svg+xml</dc:format><dc:type
         rdf:resource="http://purl.org/dc/dcmitype/StillImage" /><dc:title /></cc:Work></rdf:RDF></metadata><defs
   id="defs136" /><sodipodi:namedview
   pagecolor="#ffffff"
   bordercolor="#666666"
   borderopacity="1"
   objecttolerance="10"
   gridtolerance="10"
   guidetolerance="10"
   inkscape:pageopacity="0"
   inkscape:pageshadow="2"
   inkscape:window-width="1440"
   inkscape:window-height="761"
   id="namedview134"
   showgrid="false"
   fit-margin-top="0"
   fit-margin-left="0"
   fit-margin-right="0"
   fit-margin-bottom="0"
   inkscape:zoom="1.0428359"
   inkscape:cx="60.411828"
   inkscape:cy="160.99146"
   inkscape:window-x="0"
   inkscape:window-y="25"
   inkscape:window-maximized="1"
   inkscape:current-layer="Layer_1"
   inkscape:document-rotation="0" />
<g
   id="g101"
   transform="translate(-3.6416237e-4,-84.013538)">
	<g
   id="g99">
		
			<rect
   id="XMLID_60_"
   x="-14.319"
   y="147.42101"
   transform="matrix(0.3244,-0.9459,0.9459,0.3244,-125.6895,185.1588)"
   style="fill:#a7a9ac"
   width="162.194"
   height="66.297997" />
		<path
   d="m 169.994,106.097 -6.1,3 c -7.6,3.7 -16.5,4.2 -24.4,1.4 l -10.2,-3.6 c -0.6,-0.4 -1.2,-0.7 -1.8,-0.9 l -62.8,-21.5 c -4.7,-1.6 -9.9,0.9 -11.5,5.6 l -52.7,153.5 c -0.8,2.3 -0.6,4.8 0.4,6.9 1,2.1 2.9,3.8 5.2,4.6 l 62.7,21.5 c 1,0.3 2,0.5 2.9,0.5 3.8,0 7.3,-2.4 8.6,-6.1 l 49.7,-144.6 3.4,1.2 c 12.5,4.4 26.5,3.6 38.5,-2.2 l 6.1,-3 c 7.5,-3.7 16.3,-4.2 24.2,-1.5 l 115.3,39.7 c -1.2,4.8 -3.6,10.5 -8,13.6 -4.9,3.4 -12.2,3.4 -21.8,0.1 l -51.4,-17.6 c -2.4,-0.8 -5,-0.6 -7.2,0.6 -2.2,1.2 -3.8,3.3 -4.5,5.7 -0.1,0.3 -7.2,26.9 -29.9,39.1 -14.3,7.7 -32.1,8 -53,0.9 -4.7,-1.6 -9.9,0.9 -11.5,5.6 -1.6,4.7 0.9,9.9 5.6,11.5 12,4.1 23.3,6.2 33.8,6.2 12.2,0 23.4,-2.7 33.6,-8.2 20.3,-10.9 30.8,-30 35.6,-41.4 l 42.9,14.7 c 15.3,5.3 28.1,4.5 38,-2.4 15.9,-11 16.7,-33.3 16.8,-34.3 0.1,-4 -2.4,-7.5 -6.1,-8.8 l -122.4,-42.2 c -12.3,-4.2 -26.2,-3.3 -38,2.4 z m -103.8,150.4 -45.6,-15.6 46.7,-136.3 45.6,15.6 z"
   id="path94" />
		
			<rect
   id="XMLID_142_"
   x="334.311"
   y="148.377"
   transform="matrix(-0.4395,-0.8982,0.8982,-0.4395,434.9314,634.4379)"
   style="fill:#533e84;fill-opacity:1"
   width="162.188"
   height="66.293999" />
		<path
   d="m 410.194,266.797 -21.5,19.8 c -19.5,17.9 -41.5,33 -65.3,44.6 l -114.1,55.8 c -5,2.5 -11.1,0.4 -13.6,-4.7 -2.5,-5 -0.4,-11.1 4.7,-13.6 l 1.4,-0.7 v 0 l 62.4,-30.5 c 4.5,-2.2 6.4,-7.6 4.2,-12.1 -2.2,-4.5 -7.6,-6.4 -12.1,-4.2 l -62.4,30.5 v 0 l -31.4,15.4 c -5,2.5 -11.1,0.4 -13.6,-4.7 -1.2,-2.4 -1.4,-5.2 -0.5,-7.7 0.9,-2.6 2.7,-4.6 5.1,-5.8 l 23.7,-11.6 v 0 l 67.8,-33.2 c 4.5,-2.2 6.4,-7.6 4.2,-12.1 -2.2,-4.5 -7.6,-6.4 -12.1,-4.2 l -67.9,33.3 v 0 l -2.6,1.3 -32.4,15.9 c -2.4,1.2 -5.2,1.4 -7.7,0.5 -2.6,-0.9 -4.6,-2.7 -5.8,-5.1 -2.5,-5 -0.4,-11.1 4.7,-13.6 l 11.2,-5.5 v 0 l 22.9,-11.2 6.4,-3.1 v 0 l 52.6,-25.8 c 4.5,-2.2 6.4,-7.6 4.2,-12.1 -2.2,-4.5 -7.6,-6.4 -12.1,-4.2 l -57,27.9 -24.9,12.2 c -5,2.4 -11.1,0.4 -13.6,-4.7 -1.2,-2.4 -1.4,-5.2 -0.5,-7.7 0.9,-2.6 2.7,-4.6 5.1,-5.8 l 43.5,-21.3 c 4.5,-2.2 6.4,-7.6 4.2,-12.1 -2.2,-4.5 -7.6,-6.4 -12.1,-4.2 l -43.5,21.3 c -6.8,3.3 -11.9,9.1 -14.3,16.2 -2.4,7.1 -2,14.8 1.3,21.6 2.1,4.2 5.1,7.7 8.7,10.3 -6.3,8.3 -7.9,19.7 -3,29.7 3.3,6.8 9.1,11.9 16.2,14.3 3,1 6,1.5 9,1.5 -0.1,4.5 0.8,9 2.9,13.1 4.9,10 15,15.8 25.4,15.8 4.2,0 8.4,-0.9 12.4,-2.9 l 6.4,-3.1 c 0.3,3.4 1.2,6.7 2.7,9.9 4.9,10 15,15.8 25.4,15.8 4.2,0 8.4,-0.9 12.4,-2.9 l 114.1,-55.8 c 25.4,-12.4 48.8,-28.4 69.6,-47.5 l 25.5,-23.5 58.4,-28.6 c 4.5,-2.2 6.4,-7.6 4.2,-12.1 l -71.4,-145.5 c -1.1,-2.2 -2.9,-3.8 -5.2,-4.6 -2.3,-0.8 -4.8,-0.6 -6.9,0.4 l -59.6,29.1 c -4.5,2.2 -6.4,7.6 -4.2,12.1 z m -4.8,-160.6 63.3,129.5 -43.3,21.2 -63.3,-129.5 z"
   id="path97" />
	</g>
</g>
<g
   id="g103"
   transform="translate(-3.6416237e-4,-84.013538)">
</g>
<g
   id="g105"
   transform="translate(-3.6416237e-4,-84.013538)">
</g>
<g
   id="g107"
   transform="translate(-3.6416237e-4,-84.013538)">
</g>
<g
   id="g109"
   transform="translate(-3.6416237e-4,-84.013538)">
</g>
<g
   id="g111"
   transform="translate(-3.6416237e-4,-84.013538)">
</g>
<g
   id="g113"
   transform="translate(-3.6416237e-4,-84.013538)">
</g>
<g
   id="g115"
   transform="translate(-3.6416237e-4,-84.013538)">
</g>
<g
   id="g117"
   transform="translate(-3.6416237e-4,-84.013538)">
</g>
<g
   id="g119"
   transform="translate(-3.6416237e-4,-84.013538)">
</g>
<g
   id="g121"
   transform="translate(-3.6416237e-4,-84.013538)">
</g>
<g
   id="g123"
   transform="translate(-3.6416237e-4,-84.013538)">
</g>
<g
   id="g125"
   transform="translate(-3.6416237e-4,-84.013538)">
</g>
<g
   id="g127"
   transform="translate(-3.6416237e-4,-84.013538)">
</g>
<g
   id="g129"
   transform="translate(-3.6416237e-4,-84.013538)">
</g>
<g
   id="g131"
   transform="translate(-3.6416237e-4,-84.013538)">
</g>
</svg>
